<svg width="56" height="28" viewBox="0 0 56 28" fill="none" xmlns="http://www.w3.org/2000/svg">
<g clip-path="url(#clip0_8_40)">
<path d="M2.51254 2.85414H1.14292V1.66316H5.19224V2.85414H3.82262V10H2.51254V2.85414ZM7.1366 1.66316H8.44668V5.05745H9.85203V1.66316H11.1621V10H9.85203V6.24843H8.44668V10H7.1366V1.66316ZM13.4479 1.66316H17.0208V2.85414H14.7579V5.05745H16.5563V6.24843H14.7579V8.80903H17.0208V10H13.4479V1.66316Z" fill="#1E1E1E"/>
<path d="M24.0827 1.39851L26.1225 1.39851C26.8188 1.3985 27.3267 1.56234 27.6462 1.89002C27.9657 2.2095 28.1254 2.70511 28.1254 3.37685L28.1254 3.72091C28.1254 4.16327 28.0517 4.52372 27.9043 4.80224C27.765 5.08077 27.5479 5.28147 27.253 5.40435L27.253 5.42892C27.9247 5.6583 28.2606 6.2563 28.2606 7.22295L28.2606 7.96022C28.2606 8.62377 28.0845 9.13166 27.7322 9.48392C27.3882 9.82798 26.8803 10 26.2085 10L24.0827 10L24.0827 1.39851ZM25.9628 4.90054C26.2331 4.90054 26.4338 4.83091 26.5649 4.69165C26.7042 4.55239 26.7738 4.31892 26.7738 3.99124L26.7738 3.51202C26.7738 3.20072 26.7164 2.97545 26.6018 2.83618C26.4953 2.69692 26.3232 2.62729 26.0857 2.62729L25.4344 2.62729L25.4344 4.90055L25.9628 4.90054ZM26.2085 8.77122C26.4461 8.77122 26.6222 8.70978 26.7369 8.5869C26.8516 8.45583 26.909 8.23465 26.909 7.92336L26.909 7.1738C26.909 6.78059 26.8393 6.51025 26.7001 6.3628C26.569 6.20715 26.3478 6.12933 26.0365 6.12933L25.4344 6.12933L25.4344 8.77122L26.2085 8.77122ZM30.4024 1.3985L32.4053 1.3985C33.1016 1.3985 33.6095 1.56234 33.929 1.89002C34.2485 2.2095 34.4082 2.70511 34.4082 3.37685L34.4082 3.90523C34.4082 4.79814 34.1133 5.36339 33.5235 5.60095L33.5235 5.62553C33.8511 5.72383 34.0805 5.92453 34.2116 6.22763C34.3509 6.53073 34.4205 6.93623 34.4205 7.44413L34.4205 8.95554C34.4205 9.20129 34.4287 9.402 34.4451 9.55764C34.4614 9.7051 34.5024 9.85255 34.5679 10L33.1917 10C33.1425 9.86074 33.1098 9.72967 33.0934 9.60679C33.077 9.48391 33.0688 9.26273 33.0688 8.94325L33.0688 7.3704C33.0688 6.97719 33.0033 6.70276 32.8722 6.54712C32.7493 6.39147 32.5322 6.31365 32.221 6.31365L31.754 6.31365L31.754 10L30.4024 10L30.4024 1.3985ZM32.2455 5.08486C32.5159 5.08486 32.7166 5.01523 32.8476 4.87597C32.9869 4.73671 33.0565 4.50324 33.0565 4.17556L33.0565 3.51202C33.0565 3.20072 32.9992 2.97545 32.8845 2.83618C32.778 2.69692 32.606 2.62729 32.3684 2.62729L31.754 2.62729L31.754 5.08486L32.2455 5.08486ZM37.7544 1.3985L39.5853 1.3985L40.9861 10L39.6345 10L39.3887 8.29199L39.3887 8.31657L37.8527 8.31657L37.607 10L36.3536 10L37.7544 1.3985ZM39.229 7.14922L38.6269 2.89762L38.6023 2.89762L38.0125 7.14922L39.229 7.14922ZM42.9936 1.3985L44.6893 1.3985L46.0041 6.54711L46.0287 6.54711L46.0287 1.3985L47.2329 1.3985L47.2329 10L45.8444 10L44.2224 3.72091L44.1978 3.72091L44.1978 10L42.9936 10L42.9936 1.3985ZM49.5892 1.3985L51.6535 1.3985C52.3253 1.3985 52.8291 1.57872 53.1649 1.93917C53.5008 2.29961 53.6687 2.82799 53.6687 3.5243L53.6687 7.8742C53.6687 8.57051 53.5008 9.09889 53.1649 9.45934C52.8291 9.81978 52.3253 10 51.6535 10L49.5892 10L49.5892 1.3985ZM51.629 8.77122C51.8501 8.77122 52.0181 8.70568 52.1328 8.57461C52.2556 8.44354 52.3171 8.23055 52.3171 7.93564L52.3171 3.46286C52.3171 3.16795 52.2556 2.95496 52.1328 2.82389C52.0181 2.69282 51.8501 2.62729 51.629 2.62729L50.9408 2.62729L50.9408 8.77122L51.629 8.77122Z" fill="#1E1E1E"/>
<path d="M1.85453 12.0947H5.23095C6.37031 12.0947 7.22484 12.4004 7.79452 13.0118C8.36421 13.6232 8.64905 14.5194 8.64905 15.7004V17.1385C8.64905 18.3196 8.36421 19.2158 7.79452 19.8272C7.22484 20.4385 6.37031 20.7442 5.23095 20.7442H4.14716V26.6842H1.85453V12.0947ZM5.23095 18.66C5.6061 18.66 5.884 18.5558 6.06463 18.3474C6.25916 18.139 6.35642 17.7846 6.35642 17.2844V15.5545C6.35642 15.0543 6.25916 14.7 6.06463 14.4916C5.884 14.2832 5.6061 14.179 5.23095 14.179H4.14716V18.66H5.23095ZM9.68578 12.0947H11.9784V26.6842H9.68578V12.0947ZM13.487 12.0947H16.8634C18.0028 12.0947 18.8573 12.4004 19.427 13.0118C19.9967 13.6232 20.2815 14.5194 20.2815 15.7004V17.1385C20.2815 18.3196 19.9967 19.2158 19.427 19.8272C18.8573 20.4385 18.0028 20.7442 16.8634 20.7442H15.7797V26.6842H13.487V12.0947ZM16.8634 18.66C17.2386 18.66 17.5165 18.5558 17.6971 18.3474C17.8917 18.139 17.9889 17.7846 17.9889 17.2844V15.5545C17.9889 15.0543 17.8917 14.7 17.6971 14.4916C17.5165 14.2832 17.2386 14.179 16.8634 14.179H15.7797V18.66H16.8634ZM21.3183 12.0947H27.5709V14.179H23.6109V18.0347H26.7581V20.119H23.6109V24.6H27.5709V26.6842H21.3183V12.0947ZM28.6814 12.0947H30.974V24.6H34.7465V26.6842H28.6814V12.0947ZM35.6375 12.0947H37.9301V26.6842H35.6375V12.0947ZM39.4387 12.0947H42.3149L44.545 20.8276H44.5867V12.0947H46.6292V26.6842H44.2741L41.5229 16.0339H41.4812V26.6842H39.4387V12.0947ZM48.1248 12.0947H54.3774V14.179H50.4174V18.0347H53.5646V20.119H50.4174V24.6H54.3774V26.6842H48.1248V12.0947Z" fill="#1E1E1E"/>
</g>
<defs>
<clipPath id="clip0_8_40">
<rect width="56" height="28" fill="white"/>
</clipPath>
</defs>
</svg>
