<svg width="668" height="334" viewBox="0 0 668 334" fill="none" xmlns="http://www.w3.org/2000/svg">
<g clip-path="url(#clip0_11_58)">
<path d="M29.971 30.8315H13.6334V16.6249H61.936V30.8315H45.5984V116.071H29.971V30.8315ZM85.1295 16.6249H100.757V57.1138H117.521V16.6249H133.148V116.071H117.521V71.3205H100.757V116.071H85.1295V16.6249ZM160.414 16.6249H203.034V30.8315H176.041V57.1138H197.493V71.3205H176.041V101.865H203.034V116.071H160.414V16.6249Z" fill="#F5F0EB"/>
<path d="M287.272 17.4678L311.604 17.4678C319.91 17.4678 325.969 19.4222 329.78 23.3309C333.591 27.1419 335.496 33.0538 335.496 41.0666L335.496 45.1708C335.496 50.4475 334.617 54.7471 332.858 58.0695C331.197 61.3919 328.607 63.786 325.089 65.2518L325.089 65.5449C333.102 68.281 337.109 75.4144 337.109 86.9451L337.109 95.7397C337.109 103.655 335.008 109.713 330.806 113.915C326.702 118.019 320.643 120.071 312.63 120.071L287.273 120.071L287.272 17.4678ZM309.699 59.2421C312.923 59.2421 315.317 58.4115 316.881 56.7503C318.542 55.0891 319.373 52.3042 319.373 48.3955L319.373 42.679C319.373 38.9657 318.689 36.2785 317.321 34.6173C316.05 32.9561 313.998 32.1255 311.164 32.1255L303.396 32.1255L303.396 59.2421L309.699 59.2421ZM312.63 105.414C315.464 105.414 317.565 104.681 318.933 103.215C320.301 101.652 320.985 99.0133 320.985 95.3L320.985 86.3588C320.985 81.6684 320.155 78.4437 318.493 76.6848C316.93 74.8281 314.291 73.8998 310.578 73.8998L303.396 73.8998L303.396 105.414L312.63 105.414ZM362.656 17.4678L386.548 17.4678C394.854 17.4678 400.913 19.4222 404.724 23.3309C408.535 27.1418 410.44 33.0538 410.44 41.0666L410.44 47.3694C410.44 58.0207 406.923 64.7632 399.887 67.597L399.887 67.8902C403.796 69.0628 406.532 71.4568 408.095 75.0724C409.756 78.688 410.587 83.525 410.587 89.5835L410.587 107.612C410.587 110.544 410.685 112.938 410.88 114.795C411.076 116.554 411.564 118.312 412.346 120.071L395.929 120.071C395.343 118.41 394.952 116.847 394.757 115.381C394.561 113.915 394.464 111.277 394.464 107.466L394.464 88.704C394.464 84.0136 393.682 80.74 392.118 78.8834C390.653 77.0268 388.063 76.0984 384.35 76.0984L378.78 76.0984L378.78 120.071L362.656 120.071L362.656 17.4678ZM384.643 61.4408C387.868 61.4408 390.262 60.6102 391.825 58.949C393.486 57.2878 394.317 54.5028 394.317 50.5941L394.317 42.679C394.317 38.9657 393.633 36.2785 392.265 34.6173C390.995 32.9561 388.942 32.1255 386.109 32.1255L378.78 32.1255L378.78 61.4408L384.643 61.4408ZM450.356 17.4678L472.196 17.4678L488.906 120.071L472.782 120.071L469.851 99.6973L469.851 99.9904L451.529 99.9904L448.597 120.071L433.646 120.071L450.356 17.4678ZM467.945 86.0656L460.763 35.3501L460.47 35.3501L453.434 86.0656L467.945 86.0656ZM512.852 17.4678L533.079 17.4678L548.763 78.8834L549.056 78.8834L549.056 17.4678L563.421 17.4678L563.421 120.071L546.857 120.071L527.509 45.1708L527.216 45.1708L527.216 120.071L512.852 120.071L512.852 17.4678ZM591.528 17.4678L616.153 17.4678C624.165 17.4678 630.175 19.6175 634.182 23.9171C638.188 28.2167 640.191 34.5195 640.191 42.8255L640.191 94.7136C640.191 103.02 638.188 109.322 634.182 113.622C630.175 117.922 624.165 120.071 616.153 120.071L591.528 120.071L591.528 17.4678ZM615.859 105.414C618.498 105.414 620.501 104.632 621.869 103.068C623.335 101.505 624.068 98.9644 624.068 95.4465L624.068 42.0926C624.068 38.5748 623.335 36.0341 621.869 34.4706C620.501 32.9072 618.498 32.1254 615.859 32.1254L607.651 32.1254L607.651 105.414L615.859 105.414Z" fill="#F5F0EB"/>
<path d="M22.1219 141.63H62.3977C75.9888 141.63 86.182 145.276 92.9776 152.569C99.7731 159.862 103.171 170.552 103.171 184.641V201.795C103.171 215.884 99.7731 226.574 92.9776 233.867C86.182 241.16 75.9888 244.806 62.3977 244.806H49.4697V315.662H22.1219V141.63ZM62.3977 219.944C66.8728 219.944 70.1877 218.701 72.3424 216.215C74.6628 213.729 75.823 209.502 75.823 203.536V182.9C75.823 176.934 74.6628 172.707 72.3424 170.221C70.1877 167.735 66.8728 166.492 62.3977 166.492H49.4697V219.944H62.3977ZM115.538 141.63H142.885V315.662H115.538V141.63ZM160.881 141.63H201.157C214.748 141.63 224.941 145.276 231.737 152.569C238.532 159.862 241.93 170.552 241.93 184.641V201.795C241.93 215.884 238.532 226.574 231.737 233.867C224.941 241.16 214.748 244.806 201.157 244.806H188.229V315.662H160.881V141.63ZM201.157 219.944C205.632 219.944 208.947 218.701 211.101 216.215C213.422 213.729 214.582 209.502 214.582 203.536V182.9C214.582 176.934 213.422 172.707 211.101 170.221C208.947 167.735 205.632 166.492 201.157 166.492H188.229V219.944H201.157ZM254.297 141.63H328.882V166.492H281.644V212.486H319.186V237.347H281.644V290.8H328.882V315.662H254.297V141.63ZM342.128 141.63H369.476V290.8H414.476V315.662H342.128V141.63ZM425.104 141.63H452.452V315.662H425.104V141.63ZM470.447 141.63H504.756L531.358 245.8H531.856V141.63H556.22V315.662H528.126L495.309 188.619H494.812V315.662H470.447V141.63ZM574.06 141.63H648.645V166.492H601.408V212.486H638.949V237.347H601.408V290.8H648.645V315.662H574.06V141.63Z" fill="#F5F0EB"/>
</g>
<defs>
<clipPath id="clip0_11_58">
<rect width="668" height="334" fill="white"/>
</clipPath>
</defs>
</svg>
